<svg xmlns="http://www.w3.org/2000/svg" width="22" height="22" viewBox="0 0 22 22">
  <g id="Group_7" data-name="Group 7" transform="translate(-440 -719)">
    <path id="Path_5" data-name="Path 5" d="M11,0A11,11,0,1,1,0,11,11,11,0,0,1,11,0Z" transform="translate(440 719)" fill="#232323"/>
    <g id="dribbble-logo" transform="translate(445 724)">
      <path id="Path_3" data-name="Path 3" d="M6,.065a5.992,5.992,0,1,0,6,5.992A6,6,0,0,0,6,.065ZM9.948,2.893a5.033,5.033,0,0,1,1.12,3.086,12.593,12.593,0,0,0-2.345-.226,9.534,9.534,0,0,0-1.156.067c-.033-.08-.066-.161-.1-.242-.1-.239-.211-.477-.325-.71A6.907,6.907,0,0,0,9.948,2.893ZM6,1A5.051,5.051,0,0,1,9.34,2.26a5.791,5.791,0,0,1-2.618,1.8A27.325,27.325,0,0,0,4.857,1.133,5.052,5.052,0,0,1,6,1Zm-2.177.492A32.577,32.577,0,0,1,5.677,4.382a19.2,19.2,0,0,1-4.581.61h-.05A5.081,5.081,0,0,1,3.823,1.495ZM.931,6.065c0-.042,0-.083,0-.125h.133a18.976,18.976,0,0,0,5.062-.72c.137.267.267.538.387.809-.056.016-.113.033-.168.051a8.108,8.108,0,0,0-4.14,3.338A5.037,5.037,0,0,1,.931,6.065ZM6,11.127a5.048,5.048,0,0,1-3.092-1.054A7,7,0,0,1,6.88,6.93l.006,0a21.187,21.187,0,0,1,1.072,3.805A5.042,5.042,0,0,1,6,11.127Zm2.871-.893A22.131,22.131,0,0,0,7.9,6.68,6.689,6.689,0,0,1,8.92,6.6,7.548,7.548,0,0,1,11,6.894,5.07,5.07,0,0,1,8.871,10.234Z" transform="translate(0 -0.065)" fill="#fff"/>
    </g>
  </g>
</svg>
