<svg xmlns="http://www.w3.org/2000/svg" width="149" height="149" viewBox="0 0 149 149">
  <g id="Group_5" data-name="Group 5" transform="translate(4897 -14537)">
    <circle id="Ellipse_2" data-name="Ellipse 2" cx="74.5" cy="74.5" r="74.5" transform="translate(-4897 14537)" fill="#232323"/>
    <g id="dribbble-logo" transform="translate(-4866 14567.935)">
      <path id="Path_99" data-name="Path 99" d="M43.475.065A43.417,43.417,0,1,0,86.95,43.482,43.5,43.5,0,0,0,43.475.065Zm28.6,20.494A36.466,36.466,0,0,1,80.193,42.92,91.244,91.244,0,0,0,63.2,41.279a69.079,69.079,0,0,0-8.373.486c-.239-.581-.482-1.166-.732-1.752-.739-1.734-1.531-3.455-2.356-5.147C64.591,29.57,70.8,22.221,72.079,20.559Zm-28.6-13.7a36.6,36.6,0,0,1,24.2,9.113C66.648,17.37,61.1,24.307,48.7,28.994A197.992,197.992,0,0,0,35.192,7.806,36.607,36.607,0,0,1,43.475,6.859ZM27.7,10.423A236.045,236.045,0,0,1,41.134,31.345,139.118,139.118,0,0,1,7.94,35.766H7.581A36.819,36.819,0,0,1,27.7,10.423ZM6.746,43.538c0-.3.007-.6.016-.906.22,0,.542.007.963.007a137.5,137.5,0,0,0,36.681-5.219c.989,1.937,1.933,3.9,2.806,5.863-.408.118-.816.239-1.22.369-18.355,5.93-28.448,21.624-30,24.188A36.5,36.5,0,0,1,6.746,43.538Zm36.729,36.68a36.578,36.578,0,0,1-22.4-7.636c1.048-2.057,8.662-15.77,28.781-22.772l.042-.015a153.52,153.52,0,0,1,7.767,27.572A36.534,36.534,0,0,1,43.475,80.218Zm20.8-6.467A160.359,160.359,0,0,0,57.236,48a48.469,48.469,0,0,1,7.394-.553,54.69,54.69,0,0,1,15.076,2.1A36.738,36.738,0,0,1,64.276,73.751Z" fill="#fff"/>
    </g>
  </g>
</svg>
