<svg xmlns="http://www.w3.org/2000/svg" width="149" height="149" viewBox="0 0 149 149">
  <g id="Group_4" data-name="Group 4" transform="translate(4685 -14537)">
    <circle id="Ellipse_3" data-name="Ellipse 3" cx="74.5" cy="74.5" r="74.5" transform="translate(-4685 14537)" fill="#232323"/>
    <g id="email" transform="translate(-4658 14579.02)">
      <path id="Path_97" data-name="Path 97" d="M79.271,2.98H7.02L43.146,27.617Z" transform="translate(4.533 0)" fill="#fff"/>
      <path id="Path_98" data-name="Path 98" d="M50.082,33.807a4.255,4.255,0,0,1-4.787,0L3.362,5.234A6.68,6.68,0,0,0,3,7.361V53.295a6.787,6.787,0,0,0,6.787,6.829H85.57a6.787,6.787,0,0,0,6.787-6.829V7.3a6.68,6.68,0,0,0-.362-2.128Z" transform="translate(0 2.469)" fill="#fff"/>
    </g>
  </g>
</svg>
