<svg xmlns="http://www.w3.org/2000/svg" width="22" height="22" viewBox="0 0 22 22">
  <g id="Group_8" data-name="Group 8" transform="translate(-474 -719)">
    <g id="Group_6" data-name="Group 6" transform="translate(2)">
      <circle id="Ellipse_2" data-name="Ellipse 2" cx="11" cy="11" r="11" transform="translate(472 719)" fill="#232323"/>
      <g id="instagram-social-network-logo-of-photo-camera" transform="translate(478 725)">
        <path id="Path_1" data-name="Path 1" d="M1.284,0H8.717A1.253,1.253,0,0,1,10,1.283V8.717A1.253,1.253,0,0,1,8.717,10H1.284A1.253,1.253,0,0,1,0,8.717V1.283A1.253,1.253,0,0,1,1.284,0Zm6,1.111a.451.451,0,0,0-.45.45V2.639a.451.451,0,0,0,.45.45h1.13a.452.452,0,0,0,.45-.45V1.561a.451.451,0,0,0-.45-.45ZM8.87,4.229H7.99a2.925,2.925,0,0,1,.128.858A3.061,3.061,0,0,1,5.01,8.1,3.061,3.061,0,0,1,1.9,5.087a2.92,2.92,0,0,1,.128-.858H1.111V8.453a.4.4,0,0,0,.4.4H8.472a.4.4,0,0,0,.4-.4V4.229Zm-3.86-1.2A1.978,1.978,0,0,0,3,4.978,1.978,1.978,0,0,0,5.009,6.924,1.978,1.978,0,0,0,7.018,4.978,1.978,1.978,0,0,0,5.009,3.032Z" fill="#fff"/>
      </g>
    </g>
  </g>
</svg>
