<svg xmlns="http://www.w3.org/2000/svg" width="149" height="149" viewBox="0 0 149 149">
  <g id="Group_6" data-name="Group 6" transform="translate(5148 -14537)">
    <circle id="Ellipse_1" data-name="Ellipse 1" cx="74.5" cy="74.5" r="74.5" transform="translate(-5148 14537)" fill="#232323"/>
    <g id="linkedin-logo" transform="translate(-5116 14560.442)">
      <path id="LinkedIn" d="M85.92,59.895V91.66H67.5V62.022c0-7.445-2.664-12.526-9.329-12.526-5.088,0-8.117,3.424-9.449,6.737a12.6,12.6,0,0,0-.611,4.49V91.66H29.694s.248-50.2,0-55.4h18.42v7.852c-.037.059-.086.122-.121.179h.121v-.179c2.447-3.769,6.818-9.154,16.6-9.154C76.834,34.961,85.92,42.879,85.92,59.895ZM10.424,9.558C4.122,9.558,0,13.692,0,19.128,0,24.445,4,28.7,10.18,28.7H10.3c6.424,0,10.419-4.258,10.419-9.576C20.6,13.692,16.727,9.558,10.424,9.558Zm-9.33,82.1H19.509v-55.4H1.094Z" transform="translate(0 0)" fill="#fff"/>
    </g>
  </g>
</svg>
